<?xml version="1.0" ?><svg id="Layer_1" style="enable-background:new 0 0 883.221 356.845;" version="1.1" viewBox="0 0 883.221 356.845" xml:space="preserve" xmlns="http://www.w3.org/2000/svg" xmlns:xlink="http://www.w3.org/1999/xlink"><g><path d="M402.763,157.504l13.147-14.965l-91.301-9.406l-15.838,3.393l-11.234,9.014c30.711,8.359,68.694,25.387,96.766,37.975   c2.531,1.135,4.994,2.239,7.381,3.306c15.69,7.013,30.181,13.341,35.073,13.755c12.19,1.033,20.621,1.512,22.08,1.592   c5.649-4.906,10.858-9.47,13.446-11.743c-1.7-2.738-3.554-5.642-5.39-8.474C419.634,186.628,402.763,157.504,402.763,157.504z"/><path d="M474.402,193.887c-4.553,3.995-15.164,13.283-23.509,20.417c2.908,2.003,5.286,3.593,6.368,4.209   c4.109,2.337,22.875-10.356,22.017-15.212C479.037,201.937,477.085,198.346,474.402,193.887z"/><path d="M437.121,204.621c3.119,2.22,6.895,4.895,10.375,7.325c2.208-1.884,4.601-3.942,7.017-6.031   C450.724,205.673,444.665,205.254,437.121,204.621z"/><path d="M392.667,187.166c-28.826-12.927-68.149-30.554-99.006-38.515l-4.492,3.604c1.951,3.795,2.366,8.36,0.741,12.615   l-6.114,16.005c-0.693,10.524-3.293,20.57-9.841,25.761l-6.711,17.567c-2.278,5.964-8.098,9.972-14.482,9.972   c-1.89,0-3.75-0.345-5.528-1.023c-3.868-1.478-6.929-4.373-8.619-8.152c-1.689-3.779-1.807-7.991-0.329-11.858l1.977-5.174   c-26.241-5.588-51.904-20.344-51.904-35.636c0-17.582,17.032-18.913,11.603-23.985c-1.703-0.483-3.441-0.904-5.18-1.226   c-12.341-2.28-49.605-4.601-58.008-0.846c-2.784,1.244-5.988,3.376-9.174,6.112c-11.587-2.79-30.602-6.807-40.562-5.825   c-12.608,1.242-42.801,15.948-52.889,16.77c-10.087,0.821-33.297-0.76-34.135,3.418c-0.838,4.179,44.914,32.085,68.505,19.158   c12.793-7.009,30.59-11.013,44.203-13.211c-0.21,0.556-0.423,1.112-0.601,1.672c-4.014,12.613,9.382,35.501,9.382,35.501   s5.223,21.246,0.616,26.268c-0.083,0.091-0.177,0.206-0.267,0.313c-3.774,0.152-9.009,0.511-14.553,1.357   c-10.713,1.635-59.117,43.78-59.117,43.78l-15.394-0.732v33.567c0,0,12.465-3.844,16.499-17.074   c4.035-13.228,42.14-27.231,42.14-27.231l11.802-1.253c-0.515,0.987-0.815,1.569-0.815,1.569l-8.621,7.295l-9.246,25.639   l-17.43,28.954l-14.209-1.797l-6.708,4.116l-0.066,16.314c0,0,20.067-2.867,30.1-12.614c10.034-9.746,18.176-29.237,18.176-29.237   l11.7-10.215l32.637-38.672c0,0,24.118,2.854,36.386-2.715s21.499-16.986,21.499-16.986s60.836,35.56,80.84,35.046   c13.508-0.347,29.937-6.692,39.19-10.779l6.445,9.346c0,0,19.469,42.446,22.337,49.612c1.128,2.819,2.51,11.964,3.153,17.2   c0.993,8.076,4.315,14.34,4.315,14.34l27.813-8.914l-7.452-10.893l-12.381-3.439l-19.221-65.134   c16.867,5.368,40.275,13.165,44.588,16.401c6.881,5.16,37.6,33.826,37.6,33.826l6.16,19.701l20.321-1.458l-6.775-16.052   l-14.78-13.135c0,0-28.847-33.727-36.331-40.13c-7.484-6.402-36.948-24.808-36.948-24.808l8.007-41.59l35.254-4.149l18.591,2.544   c-4.839-2.044-10.557-4.56-17.304-7.575C397.664,189.406,395.198,188.3,392.667,187.166z"/><path d="M431.361,124.952l1.016-1.156c-0.565-1.512-1.118-3.244-1.787-5.297c-6.378-19.582-25.407-24.964-25.407-24.964   s18.413,26.443,2.96,22.114c-9.91-2.776-5.974-17.226-38.171-31.48c11.459,12.99,12.701,22.476,11.822,26.223   c-0.832,0.269-1.473,0.592-1.957,0.913c-2.561-5.837-15.853-14.767-39.21-14.022c12.524,8.519,21.535,15.12,24.599,18.97   L431.361,124.952z"/><path d="M245.553,83.753c-0.004,0.445-0.026,0.892-0.089,1.344l-2.805,20.056l4.803,0.563c1.178-6.981,2.613-13.566,3.711-19.174   c0.607-2.107,0.915-4.301,0.946-6.473C249.781,81.451,247.595,82.679,245.553,83.753z"/><path d="M283.439,152.335C283.439,152.335,283.439,152.335,283.439,152.335c-1.237-0.286-3.092-1.277-3.385-4.611l-34.568-13.873   c-0.168-2.317-0.213-4.674-0.178-7.046l-15.008-0.677c-2.89-0.131-5.607-1.481-7.457-3.706c-1.266-1.524-2.04-3.373-2.284-5.305   l-11.618-1.362c-0.067,5.895,0.336,12.19,1.183,19.468c0.936,4.817,2.583,8.333,4.673,10.903c1.351,2.021,3.302,3.671,5.728,4.645   l38.842,15.589l-18.28,47.85c-2.464,6.449,0.767,13.674,7.216,16.138c1.468,0.561,2.976,0.826,4.458,0.826   c5.033,0,9.777-3.061,11.68-8.042l22.667-59.333c1.527-3.997,0.866-8.297-1.4-11.576   C284.944,152.467,284.187,152.508,283.439,152.335z"/><path d="M224.054,89.456c-3.964-0.896-6.582-3.386-9.318-5.998c-0.041-0.039-0.082-0.078-0.123-0.117   c-2.058,6.477-3.516,12.277-4.445,18.004l12.026,1.41L224.054,89.456z"/><path d="M254.784,10.465c3.266,0.631,7.798,2.356,11.649,5.482c-0.961-5.336-4.809-12.539-18.076-15.171   c-22.087-4.381-34.104,10.501-42.035,27.134c-5.704,11.964-32.963,7.824-32.963,7.824s34.516,23.105,50.953,2.062   c1.544-4.167,3.085-8.582,4.41-12.864C233.14,10.653,247.702,9.224,254.784,10.465z"/><path d="M230.891,60.527c10.718,0,17.186,5.276,20.717,9.675c8.997,0.152,20.095-0.856,20.095-0.856s-0.499-9.11-0.464-20.262   l-19.372-8.41l1.99-4.586l17.444,7.573c0.069-3.492,0.2-7.066,0.424-10.533c1.084-16.835-17.337-20.398-17.337-20.398   s-18.482-3.235-23.468,12.88c-4.986,16.116-12.888,33.847-12.888,33.847s1.768,0.865,4.443,2.094   C225.399,60.871,228.208,60.527,230.891,60.527z"/><path d="M434.035,163.718c5.612,4.138,11.188-1.546,11.188-1.546l-12.729-9.637C432.494,152.535,428.423,159.58,434.035,163.718z"/><path d="M700.123,168.803c4.54,0.448,5.152-4.776,0.632-5.391l-395.737-52.053l-10.817-22.445c-1.98-4.109-4.035-3.764-4.566,0.766   l-2.776,23.677l-2.653-0.311c0.845,1.601,1.264,3.4,1.181,5.256c-0.053,1.17-0.308,2.28-0.714,3.313l1.201,0.141l-2.776,23.677   c-0.531,4.531,1.388,5.341,4.265,1.802l15.716-19.334L700.123,168.803z"/><polygon points="220.606,114.102 221.778,105.726 134.875,95.536 133.89,103.935  "/><path d="M275.457,109.846l-35.553-1.604l3.256-23.272c-6.69,3.303-11.776,4.84-15.848,4.84c-0.336,0-0.661-0.013-0.98-0.032   l-3.491,24.952c-0.313,2.23,0.331,4.489,1.771,6.222c1.439,1.731,3.542,2.777,5.792,2.879l44.333,2   c0.123,0.005,0.245,0.008,0.366,0.008c4.253,0,7.792-3.349,7.986-7.64C283.288,113.784,279.871,110.045,275.457,109.846z"/><path d="M253.006,76.86c0,0-11.321-28.938-50.683-3.701C223.61,79.117,214.841,99.993,253.006,76.86z"/><polygon points="669.085,279.239 678.778,262.049 658.264,262.374  "/><path d="M656.063,310.459c-1.246-0.983-2.314-2.162-3.176-3.506l-14.059-21.911l-6.64,57.878   c-0.786,6.858,4.136,13.057,10.994,13.844c0.484,0.055,0.964,0.082,1.44,0.082c6.266,0,11.672-4.702,12.403-11.076l3.768-32.852   c-1.684-0.507-3.293-1.323-4.73-2.457L656.063,310.459z"/><path d="M718.812,203.5c-0.279-0.961-0.48-2.016-0.615-3.155l-26.331-1.274c-9.938,9.404-19.257,21.302-27.598,36.904   l-32.098,0.508c-4.353,0.069-8.328,2.491-10.385,6.327c-2.058,3.837-1.875,8.488,0.475,12.152l32.563,50.749   c0.74,1.154,1.646,2.138,2.665,2.943c3.906,3.084,9.491,3.515,13.915,0.677c5.578-3.578,7.198-11.002,3.62-16.58l-20.925-32.611   l29.62-0.468c4.277-0.068,7.986-2.373,10.058-5.775c1.193-1.251,2.472-2.855,3.883-4.878c7.978-13.468,21.98-25.155,32.592-34.137   c-0.619-0.375-1.231-0.731-1.829-1.078C724.329,211.428,720.465,209.185,718.812,203.5z"/><path d="M718.026,198.034c-0.135-4.129,0.507-9.318,1.974-15.922l-76.143-3.686c-4.413-0.214-8.164,3.19-8.377,7.603   c-0.115,2.357,0.804,4.526,2.356,6.067c1.354,1.344,3.191,2.211,5.247,2.311L718.026,198.034z"/><path d="M785.474,171.776c-9.756-7.699-23.903-6.031-31.601,3.724c-7.698,9.755-6.031,23.902,3.724,31.601   c9.754,7.698,23.903,6.031,31.601-3.724C796.897,193.622,795.228,179.474,785.474,171.776z M759.622,184.734l-0.812,0.761   l-1.64-0.982l0.667-2.007l1.849,0.038L759.622,184.734z M772.405,175.641l2.364-0.4l0.991,0.709l-0.703,1.97l-2.296-0.286   L772.405,175.641z M777.042,196.218l-3.02-1.397l0.784-3.597l3.208-0.276l0.294,3.803L777.042,196.218z M783.719,182.557   l-2.342-0.428l-1.364-2.048l3.437-1.348l0.883,2.582L783.719,182.557z"/><polygon points="755.491,134.387 754.201,137.115 755.523,138.274 758.974,138.037 758.748,135.125  "/><polygon points="746.475,164.991 746.792,166.341 749.116,167.771 750.91,164.544 748.555,163.831  "/><polygon points="721.281,122.416 720.547,123.593 721.17,126.249 724.724,125.247 723.57,123.074  "/><polygon points="711.824,129.922 708.567,129.183 707.277,131.912 708.599,133.071 712.05,132.833  "/><polygon points="781.408,138.819 780.072,138.446 777.699,139.793 779.663,142.92 781.422,141.2  "/><polygon points="736.965,142.246 740.503,143.301 740.69,140.848 739.109,139.067 737.859,139.668  "/><polygon points="743.608,157.573 746.004,158.288 746.131,156.626 745.061,155.421 744.214,155.827  "/><polygon points="731.951,134.232 734.347,134.946 734.474,133.285 733.403,132.079 732.557,132.486  "/><polygon points="753.948,119.984 752.849,121.47 754.924,122.866 755.54,121.317 754.877,119.847  "/><polygon points="750.109,144.855 749.374,146.032 749.998,148.688 751.936,149.206 753.551,147.686 752.397,145.513  "/><polygon points="712.229,152.089 712.731,150.529 711.937,149.999 710.097,150.372 710.71,152.837  "/><polygon points="689.585,107.649 690.209,110.306 693.763,109.304 692.608,107.131 690.32,106.473  "/><polygon points="677.869,117.96 674.613,117.221 673.323,119.95 674.644,121.109 678.095,120.871  "/><polygon points="765.071,104.65 763.735,104.277 761.362,105.625 763.326,108.752 765.085,107.031  "/><polygon points="697.996,122.27 700.392,122.985 700.519,121.323 699.449,120.117 698.602,120.524  "/><polygon points="726.687,99.788 726.024,98.318 725.095,98.455 723.996,99.941 726.071,101.336  "/><polygon points="750.465,98.184 749.367,99.67 751.441,101.066 752.058,99.517 751.394,98.047  "/><polygon points="678.275,140.128 678.776,138.568 677.983,138.037 676.142,138.41 676.755,140.875  "/><polygon points="757.263,160.663 757.825,163.024 761.9,165.514 763.972,162.056 760.896,158.622  "/><polygon points="801.274,197.966 801.422,201.754 805.911,202.817 807.983,199.359 804.907,195.925  "/><polygon points="808.534,189.938 810.091,192.95 813.011,192.449 813.453,189.09 810.576,188.042  "/><polygon points="802.856,172.372 800.649,171.961 800.065,173.131 800.805,175.074 802.941,174.855  "/><polygon points="814.297,162.278 811.885,162.016 808.979,164.557 810.737,168.132 815.003,166.385  "/><polygon points="801.068,155.823 803.464,156.538 803.591,154.876 802.52,153.671 801.674,154.078  "/><polygon points="774.689,148.946 773.534,146.772 771.246,146.115 770.511,147.291 771.135,149.947  "/><polygon points="789.897,152.553 789.291,154.299 791.687,155.014 791.814,153.352 790.743,152.147  "/><path d="M875.339,175.23c-5.029,5.138-17.69,12.473-29.607,3.453c-5.758-4.359-12.174-8.673-17.59-12.159   c-9.893,3.227-19.664,16.322-19.664,16.322s11.235-6.227,22.847,0.163c16.144,8.884,29.061,20.282,44.445,3.84   c9.241-9.877,8.164-17.973,5.832-22.867C880.298,168.768,877.623,172.813,875.339,175.23z"/><path d="M873.695,173.621c0,0,12.884-13.64,2.183-26.681c-2.204-2.686-4.395-5.512-6.488-8.308l-9.751,16.326l-4.293-2.564   l10.83-18.132c-6.533-9.038-11.441-16.728-11.441-16.728s-16.921,9.965-22.727,16.003c-5.806,6.038-15.1,23.337-15.1,23.337   s16.761,9.793,30.212,19.975C860.571,187.03,873.695,173.621,873.695,173.621z"/><path d="M523.519,199.602c-15.885,37.51,10.179,74.342,25.955,84.315c11.98-11.582,37.062-19.13,37.062-19.13   s8.391-24.811,20.371-36.393C597.474,212.29,561.543,184.997,523.519,199.602z M581.786,259.875   c-6.46,2.188-21.844,7.923-32.561,16.189c-13.116-11.064-32.393-40.691-20.958-71.55c31.224-10.382,60.184,9.886,70.8,23.366   C590.443,238.312,584.19,253.494,581.786,259.875z"/><path d="M529.856,206.157c-10.03,28.628,6.976,55.993,19.454,67.257c10.369-7.54,24.167-12.852,30.89-15.181   c2.555-6.641,8.329-20.249,16.217-30.359C585.579,215.024,558.805,197.102,529.856,206.157z M578.769,228.59l-10.74,10.383   c-0.408,0.395-0.421,1.049-0.026,1.458l6.803,7.037c0.394,0.407,0.384,1.063-0.024,1.457l-3.704,3.581   c-0.406,0.393-1.063,0.382-1.457-0.026l-6.803-7.037c-0.395-0.408-1.049-0.418-1.457-0.024l-10.741,10.383   c-0.406,0.393-1.065,0.38-1.458-0.026l-3.58-3.703c-0.394-0.407-0.382-1.063,0.025-1.456l10.741-10.383   c0.407-0.394,0.419-1.05,0.025-1.458l-21.125-21.852c-0.395-0.408-0.382-1.063,0.025-1.456l3.704-3.581   c0.407-0.394,1.061-0.384,1.456,0.025l21.125,21.852c0.394,0.407,1.05,0.418,1.458,0.024l10.74-10.383   c0.407-0.394,1.062-0.383,1.456,0.025l3.58,3.703C579.185,227.539,579.176,228.196,578.769,228.59z"/><path d="M620.805,114.568l-4.174,2.753l8.075,12.244l4.174-2.753l-1.211-1.837l22.192-14.635l5.707,8.654l5.844-3.854l-3.762-5.704   l81.284-53.606L745.8,40.92l-16.41,0.44l-81.284,53.606l-3.762-5.704l-5.844,3.854l5.707,8.654l-22.192,14.635L620.805,114.568z    M653.153,102.619l89.089-58.753l-4.886,10.61l-80.807,53.292L653.153,102.619z M741.691,43.031l-89.089,58.753l-3.395-5.148   l80.807-53.292L741.691,43.031z"/><path d="M554.917,188.256c-2.931-0.346-5.227,1.506-5.323,1.585c-0.427,0.351-0.488,0.98-0.138,1.407   c0.35,0.426,0.979,0.49,1.407,0.138c0.017-0.014,1.762-1.396,3.815-1.145c1.333,0.16,2.558,0.974,3.642,2.418   c0.196,0.262,0.497,0.399,0.801,0.399c0.209,0,0.419-0.065,0.6-0.2c0.441-0.332,0.53-0.958,0.199-1.4   C558.496,189.562,556.812,188.484,554.917,188.256z"/><path d="M561.548,189.576c0.194,0.28,0.506,0.431,0.823,0.431c0.196,0,0.395-0.058,0.568-0.178   c0.454-0.314,0.567-0.938,0.253-1.392c-2.013-2.906-4.44-4.614-7.216-5.078c-4.223-0.699-7.652,1.772-7.796,1.879   c-0.444,0.327-0.54,0.953-0.213,1.398c0.328,0.445,0.953,0.539,1.398,0.213c0.027-0.021,2.888-2.084,6.281-1.518   C557.871,185.703,559.855,187.13,561.548,189.576z"/><path d="M570.711,281.763c1.214,0.521,2.372,0.783,3.463,0.783c0.866,0,1.691-0.165,2.47-0.495   c2.714-1.151,3.784-3.907,3.829-4.023c0.194-0.515-0.063-1.089-0.578-1.286c-0.514-0.196-1.091,0.062-1.291,0.573   c-0.008,0.021-0.833,2.095-2.758,2.902c-1.23,0.516-2.693,0.42-4.346-0.292c-0.504-0.216-1.095,0.017-1.313,0.524   C569.969,280.957,570.204,281.545,570.711,281.763z"/><path d="M583.48,280.004c-0.503-0.224-1.094,0.003-1.32,0.506c-0.015,0.032-1.495,3.266-4.714,4.45   c-2.106,0.773-4.533,0.522-7.211-0.753c-0.499-0.239-1.096-0.026-1.332,0.473c-0.238,0.498-0.026,1.095,0.473,1.332   c1.943,0.927,3.799,1.39,5.55,1.39c1.123,0,2.203-0.19,3.234-0.573c4.016-1.489,5.757-5.345,5.829-5.508   C584.211,280.815,583.983,280.227,583.48,280.004z"/><path d="M729.388,34.886c-2.199-0.891-4.198-0.944-5.938-0.159c-2.688,1.21-3.699,3.988-3.74,4.105   c-0.185,0.52,0.087,1.087,0.605,1.273c0.111,0.04,0.225,0.059,0.336,0.059c0.41,0,0.794-0.254,0.942-0.66   c0.008-0.021,0.786-2.112,2.693-2.961c1.22-0.543,2.686-0.477,4.352,0.196c0.513,0.208,1.095-0.04,1.302-0.552   S729.9,35.093,729.388,34.886z"/><path d="M731.133,31.931c0.227-0.504,0.002-1.096-0.502-1.322c-3.225-1.45-6.187-1.658-8.802-0.624   c-3.981,1.577-5.638,5.469-5.707,5.634c-0.211,0.509,0.029,1.092,0.538,1.305c0.126,0.053,0.257,0.078,0.385,0.078   c0.391,0,0.762-0.23,0.923-0.612c0.015-0.033,1.424-3.298,4.616-4.552c2.093-0.82,4.522-0.62,7.227,0.596   C730.315,32.66,730.907,32.434,731.133,31.931z"/><polygon points="798.358,116.257 791.094,120.337 792.217,125.057 800.365,130.036 804.508,123.122  "/><path d="M779.664,220.615c2.942-0.185,4.868-2.427,4.948-2.521c0.356-0.422,0.304-1.054-0.118-1.409   c-0.425-0.359-1.055-0.302-1.409,0.118c-0.015,0.018-1.479,1.687-3.546,1.816c-1.328,0.081-2.692-0.495-4.02-1.719   c-0.406-0.372-1.038-0.348-1.413,0.058c-0.374,0.406-0.349,1.039,0.058,1.413c1.625,1.498,3.343,2.256,5.111,2.256   C779.404,220.627,779.534,220.623,779.664,220.615z"/><path d="M785.378,220.993c-0.024,0.026-2.496,2.584-5.926,2.631c-0.031,0-0.063,0-0.096,0c-2.212,0-4.384-1.045-6.454-3.107   c-0.392-0.39-1.025-0.386-1.415,0.003c-0.39,0.392-0.388,1.025,0.003,1.415c2.46,2.449,5.104,3.689,7.863,3.689   c0.051,0,0.102,0,0.151-0.001c4.282-0.07,7.206-3.127,7.328-3.257c0.378-0.402,0.358-1.032-0.042-1.411   C786.389,220.575,785.756,220.596,785.378,220.993z"/><rect height="65.832" transform="matrix(0.1041 -0.9946 0.9946 0.1041 309.8036 673.2465)" width="0.945" x="528.125" y="131.746"/><rect height="64.709" transform="matrix(0.1041 -0.9946 0.9946 0.1041 339.3994 704.3598)" width="0.945" x="560.193" y="131.436"/><rect height="69.427" transform="matrix(0.1041 -0.9946 0.9946 0.1041 324.8224 689.1069)" width="0.945" x="544.439" y="129.542"/><rect height="46.893" transform="matrix(0.104 -0.9946 0.9946 0.104 359.1203 664.3795)" width="0.945" x="547.827" y="109.427"/><rect height="59.84" transform="matrix(0.1041 -0.9946 0.9946 0.1041 347.153 638.4156)" width="0.945" x="527.467" y="96.595"/><rect height="88.48" transform="matrix(0.1041 -0.9946 0.9946 0.1041 368.7661 672.9064)" width="0.945" x="557.418" y="87.523"/><path d="M724.072,175.211c-11.558,43.106,6.04,28.858,17.704,47.634C755.021,178.003,724.072,175.211,724.072,175.211z"/></g></svg>