<svg viewBox="0 0 883.221 356.845" xmlns="http://www.w3.org/2000/svg">
  <path d="M402.763 157.504l13.147-14.965-91.301-9.406-15.838 3.393-11.234 9.014c30.711 8.359 68.694 25.387 96.766 37.975a6821.48 6821.48 0 0 0 7.381 3.306c15.69 7.013 30.181 13.341 35.073 13.755 12.19 1.033 20.621 1.512 22.08 1.592 5.649-4.906 10.858-9.47 13.446-11.743a522.776 522.776 0 0 0-5.39-8.474c-47.259 4.677-64.13-24.447-64.13-24.447zM474.402 193.887c-4.553 3.995-15.164 13.283-23.509 20.417 2.908 2.003 5.286 3.593 6.368 4.209 4.109 2.337 22.875-10.356 22.017-15.212-.241-1.364-2.193-4.955-4.876-9.414zM437.121 204.621c3.119 2.22 6.895 4.895 10.375 7.325 2.208-1.884 4.601-3.942 7.017-6.031a886.85 886.85 0 0 1-17.392-1.294zM392.667 187.166c-28.826-12.927-68.149-30.554-99.006-38.515l-4.492 3.604c1.951 3.795 2.366 8.36.741 12.615l-6.114 16.005c-.693 10.524-3.293 20.57-9.841 25.761l-6.711 17.567c-2.278 5.964-8.098 9.972-14.482 9.972-1.89 0-3.75-.345-5.528-1.023a15.401 15.401 0 0 1-8.619-8.152 15.4 15.4 0 0 1-.329-11.858l1.977-5.174c-26.241-5.588-51.904-20.344-51.904-35.636 0-17.582 17.032-18.913 11.603-23.985a57.287 57.287 0 0 0-5.18-1.226c-12.341-2.28-49.605-4.601-58.008-.846-2.784 1.244-5.988 3.376-9.174 6.112-11.587-2.79-30.602-6.807-40.562-5.825-12.608 1.242-42.801 15.948-52.889 16.77-10.087.821-33.297-.76-34.135 3.418-.838 4.179 44.914 32.085 68.505 19.158 12.793-7.009 30.59-11.013 44.203-13.211-.21.556-.423 1.112-.601 1.672-4.014 12.613 9.382 35.501 9.382 35.501s5.223 21.246.616 26.268c-.083.091-.177.206-.267.313-3.774.152-9.009.511-14.553 1.357-10.713 1.635-59.117 43.78-59.117 43.78l-15.394-.732v33.567s12.465-3.844 16.499-17.074c4.035-13.228 42.14-27.231 42.14-27.231l11.802-1.253c-.515.987-.815 1.569-.815 1.569l-8.621 7.295-9.246 25.639-17.43 28.954-14.209-1.797-6.708 4.116-.066 16.314s20.067-2.867 30.1-12.614c10.034-9.746 18.176-29.237 18.176-29.237l11.7-10.215 32.637-38.672s24.118 2.854 36.386-2.715 21.499-16.986 21.499-16.986 60.836 35.56 80.84 35.046c13.508-.347 29.937-6.692 39.19-10.779l6.445 9.346s19.469 42.446 22.337 49.612c1.128 2.819 2.51 11.964 3.153 17.2.993 8.076 4.315 14.34 4.315 14.34l27.813-8.914-7.452-10.893-12.381-3.439-19.221-65.134c16.867 5.368 40.275 13.165 44.588 16.401 6.881 5.16 37.6 33.826 37.6 33.826l6.16 19.701 20.321-1.458-6.775-16.052-14.78-13.135s-28.847-33.727-36.331-40.13c-7.484-6.402-36.948-24.808-36.948-24.808l8.007-41.59 35.254-4.149 18.591 2.544c-4.839-2.044-10.557-4.56-17.304-7.575l-7.387-3.31zM431.361 124.952l1.016-1.156c-.565-1.512-1.118-3.244-1.787-5.297-6.378-19.582-25.407-24.964-25.407-24.964s18.413 26.443 2.96 22.114c-9.91-2.776-5.974-17.226-38.171-31.48 11.459 12.99 12.701 22.476 11.822 26.223-.832.269-1.473.592-1.957.913-2.561-5.837-15.853-14.767-39.21-14.022 12.524 8.519 21.535 15.12 24.599 18.97l66.135 8.699zM245.553 83.753c-.004.445-.026.892-.089 1.344l-2.805 20.056 4.803.563c1.178-6.981 2.613-13.566 3.711-19.174a24.73 24.73 0 0 0 .946-6.473 152.428 152.428 0 0 1-6.566 3.684z"/>
  <path d="M283.439 152.335c-1.237-.286-3.092-1.277-3.385-4.611l-34.568-13.873a81.08 81.08 0 0 1-.178-7.046l-15.008-.677a10.324 10.324 0 0 1-7.457-3.706 10.315 10.315 0 0 1-2.284-5.305l-11.618-1.362c-.067 5.895.336 12.19 1.183 19.468.936 4.817 2.583 8.333 4.673 10.903a12.44 12.44 0 0 0 5.728 4.645l38.842 15.589-18.28 47.85c-2.464 6.449.767 13.674 7.216 16.138 1.468.561 2.976.826 4.458.826 5.033 0 9.777-3.061 11.68-8.042l22.667-59.333a12.486 12.486 0 0 0-1.4-11.576 4.216 4.216 0 0 1-2.269.112zM224.054 89.456c-3.964-.896-6.582-3.386-9.318-5.998l-.123-.117c-2.058 6.477-3.516 12.277-4.445 18.004l12.026 1.41 1.86-13.299zM254.784 10.465c3.266.631 7.798 2.356 11.649 5.482-.961-5.336-4.809-12.539-18.076-15.171-22.087-4.381-34.104 10.501-42.035 27.134-5.704 11.964-32.963 7.824-32.963 7.824s34.516 23.105 50.953 2.062c1.544-4.167 3.085-8.582 4.41-12.864 4.418-14.279 18.98-15.708 26.062-14.467z"/>
  <path d="M230.891 60.527c10.718 0 17.186 5.276 20.717 9.675 8.997.152 20.095-.856 20.095-.856s-.499-9.11-.464-20.262l-19.372-8.41 1.99-4.586 17.444 7.573c.069-3.492.2-7.066.424-10.533 1.084-16.835-17.337-20.398-17.337-20.398s-18.482-3.235-23.468 12.88c-4.986 16.116-12.888 33.847-12.888 33.847s1.768.865 4.443 2.094c2.924-.68 5.733-1.024 8.416-1.024zM434.035 163.718c5.612 4.138 11.188-1.546 11.188-1.546l-12.729-9.637s-4.071 7.045 1.541 11.183z"/>
  <path d="M700.123 168.803c4.54.448 5.152-4.776.632-5.391l-395.737-52.053-10.817-22.445c-1.98-4.109-4.035-3.764-4.566.766l-2.776 23.677-2.653-.311a10.242 10.242 0 0 1 1.181 5.256 10.307 10.307 0 0 1-.714 3.313l1.201.141-2.776 23.677c-.531 4.531 1.388 5.341 4.265 1.802l15.716-19.334 397.044 40.902zM220.606 114.102l1.172-8.376-86.903-10.19-.985 8.399zM275.457 109.846l-35.553-1.604 3.256-23.272c-6.69 3.303-11.776 4.84-15.848 4.84-.336 0-.661-.013-.98-.032l-3.491 24.952a8.005 8.005 0 0 0 7.563 9.101l44.333 2a8 8 0 0 0 .72-15.985z"/>
  <path d="M253.006 76.86s-11.321-28.938-50.683-3.701c21.287 5.958 12.518 26.834 50.683 3.701zM669.085 279.239l9.693-17.19-20.514.325zM656.063 310.459a14.255 14.255 0 0 1-3.176-3.506l-14.059-21.911-6.64 57.878c-.786 6.858 4.136 13.057 10.994 13.844.484.055.964.082 1.44.082 6.266 0 11.672-4.702 12.403-11.076l3.768-32.852a14.253 14.253 0 0 1-4.73-2.457v-.002z"/>
  <path d="M718.812 203.5a19.646 19.646 0 0 1-.615-3.155l-26.331-1.274c-9.938 9.404-19.257 21.302-27.598 36.904l-32.098.508a12 12 0 0 0-9.91 18.479l32.563 50.749a11.994 11.994 0 0 0 2.665 2.943c3.906 3.084 9.491 3.515 13.915.677 5.578-3.578 7.198-11.002 3.62-16.58l-20.925-32.611 29.62-.468c4.277-.068 7.986-2.373 10.058-5.775 1.193-1.251 2.472-2.855 3.883-4.878 7.978-13.468 21.98-25.155 32.592-34.137a111.62 111.62 0 0 0-1.829-1.078c-4.093-2.376-7.957-4.619-9.61-10.304zM718.026 198.034c-.135-4.129.507-9.318 1.974-15.922l-76.143-3.686a7.998 7.998 0 0 0-8.377 7.603 7.98 7.98 0 0 0 2.356 6.067 7.973 7.973 0 0 0 5.247 2.311l74.943 3.627zM785.474 171.776c-9.756-7.699-23.903-6.031-31.601 3.724-7.698 9.755-6.031 23.902 3.724 31.601 9.754 7.698 23.903 6.031 31.601-3.724 7.699-9.755 6.03-23.903-3.724-31.601zm-25.852 12.958l-.812.761-1.64-.982.667-2.007 1.849.038-.064 2.19zm12.783-9.093l2.364-.4.991.709-.703 1.97-2.296-.286-.356-1.993zm4.637 20.577l-3.02-1.397.784-3.597 3.208-.276.294 3.803-1.266 1.467zm6.677-13.661l-2.342-.428-1.364-2.048 3.437-1.348.883 2.582-.614 1.242zM755.491 134.387l-1.29 2.728 1.322 1.159 3.451-.237-.226-2.912zM746.475 164.991l.317 1.35 2.324 1.43 1.794-3.227-2.355-.713zM721.281 122.416l-.734 1.177.623 2.656 3.554-1.002-1.154-2.173zM711.824 129.922l-3.257-.739-1.29 2.729 1.322 1.159 3.451-.238zM781.408 138.819l-1.336-.373-2.373 1.347 1.964 3.127 1.759-1.72zM736.965 142.246l3.538 1.055.187-2.453-1.581-1.781-1.25.601zM743.608 157.573l2.396.715.127-1.662-1.07-1.205-.847.406zM731.951 134.232l2.396.714.127-1.661-1.071-1.206-.846.407zM753.948 119.984l-1.099 1.486 2.075 1.396.616-1.549-.663-1.47zM750.109 144.855l-.735 1.177.624 2.656 1.938.518 1.615-1.52-1.154-2.173zM712.229 152.089l.502-1.56-.794-.53-1.84.373.613 2.465zM689.585 107.649l.624 2.657 3.554-1.002-1.155-2.173-2.288-.658zM677.869 117.96l-3.256-.739-1.29 2.729 1.321 1.159 3.451-.238zM765.071 104.65l-1.336-.373-2.373 1.348 1.964 3.127 1.759-1.721zM697.996 122.27l2.396.715.127-1.662-1.07-1.206-.847.407zM726.687 99.788l-.663-1.47-.929.137-1.099 1.486 2.075 1.395zM750.465 98.184l-1.098 1.486 2.074 1.396.617-1.549-.664-1.47zM678.275 140.128l.501-1.56-.793-.531-1.841.373.613 2.465zM757.263 160.663l.562 2.361 4.075 2.49 2.072-3.458-3.076-3.434zM801.274 197.966l.148 3.788 4.489 1.063 2.072-3.458-3.076-3.434zM808.534 189.938l1.557 3.012 2.92-.501.442-3.359-2.877-1.048zM802.856 172.372l-2.207-.411-.584 1.17.74 1.943 2.136-.219zM814.297 162.278l-2.412-.262-2.906 2.541 1.758 3.575 4.266-1.747zM801.068 155.823l2.396.715.127-1.662-1.071-1.205-.846.407zM774.689 148.946l-1.155-2.174-2.288-.657-.735 1.176.624 2.656zM789.897 152.553l-.606 1.746 2.396.715.127-1.662-1.071-1.205zM875.339 175.23c-5.029 5.138-17.69 12.473-29.607 3.453-5.758-4.359-12.174-8.673-17.59-12.159-9.893 3.227-19.664 16.322-19.664 16.322s11.235-6.227 22.847.163c16.144 8.884 29.061 20.282 44.445 3.84 9.241-9.877 8.164-17.973 5.832-22.867-1.304 4.786-3.979 8.831-6.263 11.248z"/>
  <path d="M873.695 173.621s12.884-13.64 2.183-26.681a238.7 238.7 0 0 1-6.488-8.308l-9.751 16.326-4.293-2.564 10.83-18.132c-6.533-9.038-11.441-16.728-11.441-16.728s-16.921 9.965-22.727 16.003c-5.806 6.038-15.1 23.337-15.1 23.337s16.761 9.793 30.212 19.975c13.451 10.181 26.575-3.228 26.575-3.228zM523.519 199.602c-15.885 37.51 10.179 74.342 25.955 84.315 11.98-11.582 37.062-19.13 37.062-19.13s8.391-24.811 20.371-36.393c-9.433-16.104-45.364-43.397-83.388-28.792zm58.267 60.273c-6.46 2.188-21.844 7.923-32.561 16.189-13.116-11.064-32.393-40.691-20.958-71.55 31.224-10.382 60.184 9.886 70.8 23.366-8.624 10.432-14.877 25.614-17.281 31.995z"/>
  <path d="M529.856 206.157c-10.03 28.628 6.976 55.993 19.454 67.257 10.369-7.54 24.167-12.852 30.89-15.181 2.555-6.641 8.329-20.249 16.217-30.359-10.838-12.85-37.612-30.772-66.561-21.717zm48.913 22.433l-10.74 10.383a1.033 1.033 0 0 0-.026 1.458l6.803 7.037a1.033 1.033 0 0 1-.024 1.457l-3.704 3.581a1.034 1.034 0 0 1-1.457-.026l-6.803-7.037a1.033 1.033 0 0 0-1.457-.024l-10.741 10.383a1.037 1.037 0 0 1-1.458-.026l-3.58-3.703a1.033 1.033 0 0 1 .025-1.456l10.741-10.383c.407-.394.419-1.05.025-1.458l-21.125-21.852a1.032 1.032 0 0 1 .025-1.456l3.704-3.581a1.03 1.03 0 0 1 1.456.025l21.125 21.852c.394.407 1.05.418 1.458.024l10.74-10.383a1.032 1.032 0 0 1 1.456.025l3.58 3.703a1.035 1.035 0 0 1-.023 1.457zM620.805 114.568l-4.174 2.753 8.075 12.244 4.174-2.753-1.211-1.837 22.192-14.635 5.707 8.654 5.844-3.854-3.762-5.704 81.284-53.606 6.866-14.91-16.41.44-81.284 53.606-3.762-5.704-5.844 3.854 5.707 8.654-22.192 14.635-1.21-1.837zm32.348-11.949l89.089-58.753-4.886 10.61-80.807 53.292-3.396-5.149zm88.538-59.588l-89.089 58.753-3.395-5.148 80.807-53.292 11.677-.313zM554.917 188.256c-2.931-.346-5.227 1.506-5.323 1.585a1 1 0 0 0 1.269 1.545c.017-.014 1.762-1.396 3.815-1.145 1.333.16 2.558.974 3.642 2.418a1 1 0 1 0 1.6-1.201c-1.424-1.896-3.108-2.974-5.003-3.202z"/>
  <path d="M561.548 189.576a1 1 0 1 0 1.644-1.139c-2.013-2.906-4.44-4.614-7.216-5.078-4.223-.699-7.652 1.772-7.796 1.879a1 1 0 0 0 1.185 1.611c.027-.021 2.888-2.084 6.281-1.518 2.225.372 4.209 1.799 5.902 4.245zM570.711 281.763c1.214.521 2.372.783 3.463.783.866 0 1.691-.165 2.47-.495 2.714-1.151 3.784-3.907 3.829-4.023a.998.998 0 0 0-.578-1.286 1.005 1.005 0 0 0-1.291.573c-.008.021-.833 2.095-2.758 2.902-1.23.516-2.693.42-4.346-.292a1 1 0 0 0-.789 1.838z"/>
  <path d="M583.48 280.004a1.002 1.002 0 0 0-1.32.506c-.015.032-1.495 3.266-4.714 4.45-2.106.773-4.533.522-7.211-.753a.997.997 0 0 0-1.332.473.998.998 0 0 0 .473 1.332c1.943.927 3.799 1.39 5.55 1.39 1.123 0 2.203-.19 3.234-.573 4.016-1.489 5.757-5.345 5.829-5.508a1 1 0 0 0-.509-1.317zM729.388 34.886c-2.199-.891-4.198-.944-5.938-.159-2.688 1.21-3.699 3.988-3.74 4.105a.997.997 0 0 0 .941 1.332c.41 0 .794-.254.942-.66.008-.021.786-2.112 2.693-2.961 1.22-.543 2.686-.477 4.352.196a.999.999 0 1 0 .75-1.853z"/>
  <path d="M731.133 31.931a.999.999 0 0 0-.502-1.322c-3.225-1.45-6.187-1.658-8.802-.624-3.981 1.577-5.638 5.469-5.707 5.634a1 1 0 0 0 1.846.771c.015-.033 1.424-3.298 4.616-4.552 2.093-.82 4.522-.62 7.227.596.504.226 1.096 0 1.322-.503zM798.358 116.257l-7.264 4.08 1.123 4.72 8.148 4.979 4.143-6.914zM779.664 220.615c2.942-.185 4.868-2.427 4.948-2.521a1 1 0 0 0-1.527-1.291c-.015.018-1.479 1.687-3.546 1.816-1.328.081-2.692-.495-4.02-1.719a1 1 0 1 0-1.355 1.471c1.625 1.498 3.343 2.256 5.111 2.256.129 0 .259-.004.389-.012z"/>
  <path d="M785.378 220.993c-.024.026-2.496 2.584-5.926 2.631h-.096c-2.212 0-4.384-1.045-6.454-3.107a1.001 1.001 0 0 0-1.412 1.418c2.46 2.449 5.104 3.689 7.863 3.689l.151-.001c4.282-.07 7.206-3.127 7.328-3.257a1 1 0 0 0-1.454-1.373zM495.816 161.688l.098-.94 65.477 6.853-.099.94zM528.442 160.874l.098-.94 64.36 6.737-.099.94zM510.341 161.093l.098-.94 69.052 7.228-.098.94zM524.93 130.891l.099-.94 46.64 4.877-.099.94zM498.136 123.852l.098-.94 59.517 6.23-.098.94zM513.844 127.61l.098-.94 88.002 9.21-.098.94zM724.072 175.211c-11.558 43.106 6.04 28.858 17.704 47.634 13.245-44.842-17.704-47.634-17.704-47.634z"/>
</svg>