<svg id="svg" version="1.1" viewBox="0 0 400 400" xmlns="http://www.w3.org/2000/svg" xmlns:xlink="http://www.w3.org/1999/xlink" style="display: block;"><g id="svgg"><path id="path0" d="M162.000 33.087 C 126.571 35.182,101.963 39.659,96.157 45.068 L 94.000 47.078 94.000 123.675 L 94.000 200.272 98.250 199.652 C 103.511 198.886,107.808 198.136,110.750 197.471 L 113.000 196.962 113.000 127.654 L 113.000 58.346 119.250 57.219 C 155.014 50.771,219.026 49.598,266.000 54.530 C 269.575 54.905,273.175 55.331,274.000 55.478 C 274.825 55.624,277.750 56.105,280.500 56.547 C 283.250 56.989,285.837 57.440,286.250 57.550 C 286.663 57.660,287.675 57.806,288.500 57.875 C 289.818 57.985,290.000 66.432,290.000 127.389 L 290.000 196.777 293.250 197.393 C 295.038 197.731,297.625 198.241,299.000 198.526 C 300.375 198.811,303.413 199.321,305.750 199.658 L 310.000 200.272 310.000 123.791 C 310.000 38.606,310.649 46.344,303.188 42.563 C 299.894 40.894,286.143 37.589,278.500 36.630 C 260.988 34.432,255.389 33.910,239.716 33.015 C 219.562 31.865,182.098 31.899,162.000 33.087 M159.000 68.722 C 141.778 74.708,136.036 85.597,137.512 109.474 C 138.233 121.135,137.063 131.044,134.345 136.300 C 132.585 139.704,133.036 140.459,136.335 139.631 C 139.100 138.937,139.482 136.338,140.540 111.000 C 141.586 85.961,142.240 84.066,152.071 77.563 C 169.832 65.815,189.612 70.142,195.190 86.996 L 197.012 92.500 196.489 87.831 C 194.525 70.299,178.282 62.020,159.000 68.722 M165.500 74.329 C 159.560 75.845,152.229 79.381,148.652 82.454 C 144.325 86.172,143.719 88.994,142.519 111.000 C 142.204 116.775,141.721 125.550,141.445 130.500 C 140.173 153.347,135.115 170.000,129.449 170.000 C 128.652 170.000,128.000 170.450,128.000 171.000 C 128.000 172.701,134.878 172.103,138.897 170.053 C 145.286 166.793,146.952 157.585,146.983 125.355 C 147.003 104.117,148.473 97.312,154.583 90.174 C 163.766 79.445,180.804 78.848,189.310 88.956 C 194.467 95.085,195.613 91.534,191.250 82.946 C 186.913 74.408,177.512 71.263,165.500 74.329 M166.000 84.595 C 152.604 89.329,149.898 96.351,148.887 129.000 C 148.100 154.395,147.526 161.471,145.903 165.750 C 143.942 170.921,150.536 166.733,153.558 160.887 C 156.085 156.002,157.149 146.947,157.847 124.413 C 158.493 103.541,158.528 103.287,161.234 99.413 C 167.624 90.266,177.569 87.595,182.923 93.588 C 185.544 96.521,185.784 96.593,187.718 95.027 C 194.521 89.519,176.527 80.876,166.000 84.595 M188.923 96.923 C 186.604 99.242,184.723 105.000,186.285 105.000 C 186.441 105.000,189.101 104.110,192.195 103.023 C 195.289 101.935,199.245 100.937,200.986 100.804 C 205.215 100.482,205.459 99.732,202.348 96.621 C 198.575 92.848,192.870 92.976,188.923 96.923 M199.407 103.031 C 175.701 107.731,162.654 138.593,175.818 158.828 C 178.721 163.290,179.082 158.778,176.361 152.043 C 169.420 134.857,176.274 115.690,191.830 108.788 C 201.108 104.671,220.798 105.979,228.250 111.207 L 231.000 113.136 231.000 107.568 L 231.000 102.000 217.250 102.110 C 209.688 102.170,201.658 102.584,199.407 103.031 M197.734 109.088 C 179.469 113.391,170.356 134.517,178.893 152.766 L 181.287 157.883 176.596 167.461 C 172.123 176.595,171.649 178.988,174.309 179.010 C 174.964 179.015,182.475 181.284,191.000 184.051 C 204.652 188.482,207.842 189.151,217.750 189.659 C 230.267 190.300,230.391 190.220,226.066 184.250 C 224.414 181.969,222.995 178.595,222.816 176.525 L 222.500 172.850 212.932 169.567 C 198.083 164.472,196.355 162.748,196.077 152.750 C 196.016 150.577,195.522 150.000,193.723 150.000 C 186.668 150.000,182.083 140.842,185.516 133.607 C 189.370 125.486,201.765 125.086,205.971 132.946 C 207.012 134.891,207.949 135.000,223.690 135.000 C 239.448 135.000,240.229 134.909,238.746 133.250 C 237.885 132.287,236.915 129.793,236.589 127.708 C 234.284 112.939,216.851 104.584,197.734 109.088 M191.110 130.346 C 182.010 135.579,186.220 148.912,196.602 147.741 C 208.146 146.440,208.345 131.043,196.839 129.437 C 194.978 129.178,192.442 129.580,191.110 130.346 M207.000 140.868 C 207.000 143.343,202.602 148.674,199.838 149.551 C 195.576 150.904,199.476 164.000,204.141 164.000 C 209.684 164.000,216.890 151.863,216.610 143.000 C 216.476 138.731,207.000 136.630,207.000 140.868 M218.609 144.671 C 217.783 151.699,214.842 158.524,210.873 162.626 L 207.848 165.752 211.073 166.876 C 215.386 168.379,215.399 168.377,218.911 165.421 C 223.189 161.822,226.053 154.792,226.721 146.250 L 227.289 139.000 223.282 139.000 L 219.275 139.000 218.609 144.671 M228.918 143.750 C 228.745 153.735,225.666 162.421,220.867 166.459 C 217.287 169.471,217.298 169.610,221.164 170.383 C 228.887 171.927,235.957 159.703,235.988 144.750 L 236.000 139.000 232.500 139.000 C 229.003 139.000,229.000 139.004,228.918 143.750 M238.000 144.790 C 238.000 155.357,234.615 164.772,229.025 169.749 L 226.500 171.998 229.215 171.999 C 232.808 172.000,238.249 167.129,240.860 161.574 C 243.168 156.665,243.492 155.254,244.518 145.680 L 245.233 139.000 241.616 139.000 L 238.000 139.000 238.000 144.790 M174.500 194.642 C 156.218 196.122,144.363 197.241,138.000 198.087 C 125.197 199.790,123.752 200.004,114.500 201.575 C 109.550 202.416,104.282 203.309,102.793 203.559 C 101.304 203.809,94.104 205.418,86.793 207.135 C 79.482 208.852,72.150 210.560,70.500 210.930 C 66.678 211.789,66.671 213.891,70.443 227.500 C 74.614 242.548,75.710 246.578,78.629 257.596 L 81.304 267.691 88.402 265.824 C 92.306 264.797,96.400 263.791,97.500 263.588 C 98.600 263.386,103.960 262.253,109.412 261.071 C 120.094 258.755,141.489 255.431,152.000 254.454 C 155.575 254.122,162.325 253.463,167.000 252.991 C 178.294 251.850,226.151 251.892,237.500 253.053 C 242.450 253.559,249.200 254.232,252.500 254.547 C 262.950 255.547,284.523 258.889,294.561 261.064 C 299.887 262.218,304.977 263.311,305.872 263.494 C 306.768 263.676,310.794 264.583,314.820 265.509 C 323.585 267.524,322.117 269.029,326.044 254.000 C 330.180 238.173,332.217 230.516,334.930 220.596 C 336.119 216.249,336.734 212.385,336.296 212.010 C 335.299 211.155,310.203 205.131,301.000 203.537 C 289.729 201.585,279.850 199.959,276.500 199.505 C 274.300 199.206,271.150 198.749,269.500 198.488 C 250.821 195.536,192.585 193.179,174.500 194.642 M152.000 216.500 C 152.000 218.308,152.537 219.000,153.941 219.000 C 156.757 219.000,157.438 220.799,154.765 221.179 C 152.773 221.461,152.542 221.981,152.847 225.500 C 153.279 230.483,153.600 231.000,156.259 231.000 C 157.798 231.000,158.095 231.305,157.315 232.085 C 154.545 234.855,151.531 232.682,150.609 227.250 C 150.046 223.928,149.219 222.000,148.359 222.000 C 147.612 222.000,147.000 221.550,147.000 221.000 C 147.000 220.450,147.664 220.000,148.475 220.000 C 149.581 220.000,149.800 219.249,149.350 217.000 C 148.880 214.651,149.103 214.000,150.375 214.000 C 151.442 214.000,152.000 214.859,152.000 216.500 M198.453 217.161 C 199.854 217.799,201.051 218.586,201.113 218.911 C 202.882 228.139,195.157 234.072,188.829 228.345 C 182.495 222.613,190.359 213.473,198.453 217.161 M216.735 217.401 C 217.002 217.669,217.172 221.160,217.111 225.158 C 216.973 234.209,215.999 235.422,209.633 234.468 C 203.710 233.580,203.625 232.000,209.500 232.000 C 211.975 232.000,214.000 231.550,214.000 231.000 C 214.000 230.450,212.495 230.000,210.655 230.000 C 203.954 230.000,201.172 220.287,207.000 217.238 C 209.248 216.063,215.500 216.167,216.735 217.401 M228.750 218.241 C 230.492 219.640,230.316 223.000,228.500 223.000 C 227.667 223.000,227.000 222.111,227.000 221.000 C 227.000 219.711,226.333 219.000,225.125 219.000 C 223.226 219.000,222.000 222.383,222.000 227.625 C 222.000 228.931,221.550 230.000,221.000 230.000 C 220.431 230.000,220.000 227.067,220.000 223.201 L 220.000 216.402 223.750 216.819 C 225.813 217.049,228.063 217.689,228.750 218.241 M134.000 219.481 C 134.000 221.828,134.232 221.930,138.289 221.374 C 144.108 220.576,145.225 221.938,146.153 230.961 C 146.727 236.535,144.289 235.740,143.514 230.100 C 142.760 224.619,141.465 222.921,138.466 223.480 C 137.385 223.682,136.111 223.881,135.636 223.923 C 134.815 223.996,135.573 231.724,136.687 234.628 C 136.987 235.409,136.578 236.000,135.737 236.000 C 134.735 236.000,133.902 234.152,133.147 230.250 C 130.830 218.287,130.761 217.000,132.438 217.000 C 133.434 217.000,134.000 217.899,134.000 219.481 M183.800 218.200 C 185.301 219.701,185.374 223.000,183.906 223.000 C 183.305 223.000,182.577 222.100,182.290 221.000 C 180.982 215.999,178.000 218.780,178.000 225.000 C 178.000 231.691,176.597 233.030,175.642 227.250 C 174.177 218.385,174.603 217.000,178.800 217.000 C 180.890 217.000,183.140 217.540,183.800 218.200 M243.838 219.493 C 244.824 220.418,244.991 222.224,244.473 226.373 L 243.770 232.000 239.950 232.000 C 229.388 232.000,226.405 223.793,236.750 223.198 C 242.487 222.867,244.523 220.140,239.250 219.848 C 237.738 219.764,236.050 219.591,235.500 219.463 C 234.950 219.335,233.938 219.179,233.250 219.115 C 232.563 219.052,232.000 218.535,232.000 217.966 C 232.000 216.556,242.094 217.858,243.838 219.493 M171.410 220.175 C 175.220 225.615,172.179 232.000,165.777 232.000 C 163.482 232.000,163.000 232.433,163.000 234.500 C 163.000 236.982,161.070 238.144,160.923 235.750 C 160.881 235.063,160.717 233.825,160.558 233.000 C 160.399 232.175,159.956 228.541,159.573 224.924 L 158.878 218.347 164.349 218.126 C 169.042 217.936,170.046 218.227,171.410 220.175 M191.181 218.867 C 190.354 219.391,189.981 221.159,190.181 223.602 C 190.733 230.351,198.944 229.743,198.985 222.950 C 199.010 218.690,194.873 216.526,191.181 218.867 M208.751 218.689 C 203.735 220.000,205.828 227.341,211.351 227.810 L 215.000 228.121 215.000 223.667 C 215.000 220.529,214.533 219.035,213.418 218.607 C 211.744 217.965,211.507 217.969,208.751 218.689 M262.507 220.565 C 266.112 221.192,268.132 223.570,267.472 226.412 C 266.988 228.499,266.214 232.836,266.074 234.250 C 266.033 234.662,265.386 235.000,264.637 235.000 C 263.539 235.000,263.457 233.986,264.219 229.797 C 265.038 225.291,264.927 224.420,263.391 223.297 C 260.171 220.942,259.169 221.798,258.455 227.513 C 257.816 232.629,256.628 234.961,255.324 233.658 C 255.026 233.359,255.212 230.614,255.739 227.557 C 256.266 224.501,256.427 221.967,256.098 221.926 C 255.769 221.885,254.473 221.660,253.218 221.427 C 250.679 220.955,250.428 221.416,249.513 228.250 C 248.496 235.848,246.641 234.129,247.354 226.250 C 247.690 222.537,247.973 219.329,247.982 219.121 C 248.001 218.729,257.229 219.647,262.507 220.565 M162.000 223.418 C 162.000 229.612,165.343 232.257,168.800 228.800 C 172.024 225.576,169.489 220.000,164.800 220.000 C 162.279 220.000,162.000 220.341,162.000 223.418 M112.000 223.000 C 112.000 223.550,111.325 224.000,110.500 224.000 C 109.675 224.000,109.000 223.550,109.000 223.000 C 109.000 222.450,109.675 222.000,110.500 222.000 C 111.325 222.000,112.000 222.450,112.000 223.000 M279.792 223.589 C 289.378 225.566,290.355 226.308,289.475 230.936 C 289.101 232.896,288.590 235.615,288.337 236.977 C 287.777 240.005,287.722 240.064,286.304 239.188 C 285.466 238.670,285.450 237.246,286.242 233.786 C 287.083 230.111,287.030 228.741,286.000 227.501 C 283.703 224.732,281.673 226.194,280.553 231.422 C 279.974 234.126,278.869 236.547,278.098 236.803 C 277.010 237.164,276.842 236.566,277.348 234.134 C 277.707 232.410,278.270 229.708,278.599 228.128 C 279.142 225.530,278.912 225.214,276.193 224.815 C 273.246 224.382,273.164 224.488,272.043 230.187 C 270.317 238.961,268.031 238.082,269.605 229.250 C 270.267 225.537,270.851 222.387,270.904 222.250 C 271.065 221.831,271.807 221.943,279.792 223.589 M297.000 223.000 C 297.000 223.550,296.325 224.000,295.500 224.000 C 294.675 224.000,294.000 223.550,294.000 223.000 C 294.000 222.450,294.675 222.000,295.500 222.000 C 296.325 222.000,297.000 222.450,297.000 223.000 M129.442 225.250 C 131.317 234.047,132.058 239.097,131.585 239.863 C 131.066 240.702,123.355 243.000,121.057 243.000 C 118.001 243.000,120.627 241.133,124.500 240.552 C 127.266 240.138,129.000 239.360,129.000 238.534 C 129.000 237.542,127.946 237.332,124.978 237.730 C 115.047 239.062,113.281 226.957,123.000 224.180 C 128.240 222.683,128.918 222.796,129.442 225.250 M233.685 226.378 C 232.885 228.462,235.014 230.000,238.700 230.000 C 241.271 230.000,242.000 229.582,242.000 228.107 C 242.000 225.055,234.770 223.552,233.685 226.378 M113.899 230.750 C 114.484 233.363,115.249 236.512,115.598 237.750 C 116.052 239.359,115.810 240.000,114.747 240.000 C 113.146 240.000,110.366 228.835,111.507 226.989 C 112.514 225.359,112.787 225.787,113.899 230.750 M120.571 227.571 C 117.179 230.964,119.511 236.000,124.476 236.000 C 128.657 236.000,128.896 235.583,127.776 230.250 C 126.791 225.564,123.721 224.422,120.571 227.571 M294.341 233.747 C 292.762 241.280,292.832 241.132,291.312 240.193 C 289.653 239.168,292.715 225.953,294.457 226.622 C 295.485 227.016,295.462 228.401,294.341 233.747 M42.000 235.421 C 5.872 247.694,6.465 247.370,13.691 250.880 C 17.539 252.750,38.718 264.631,39.813 265.535 C 40.077 265.752,36.137 278.918,30.474 296.743 L 29.126 300.986 31.813 299.603 C 38.459 296.183,77.779 282.986,85.493 281.587 C 91.695 280.462,92.000 280.150,92.000 274.933 C 92.000 272.220,91.662 270.005,91.250 270.012 C 90.838 270.018,88.025 270.688,85.000 271.500 C 81.975 272.312,79.197 272.982,78.828 272.988 C 78.076 273.001,77.219 270.358,73.970 258.000 C 67.808 234.561,65.752 227.996,64.592 228.059 C 63.991 228.091,53.825 231.404,42.000 235.421 M307.750 230.103 C 309.056 230.595,310.000 231.794,310.000 232.961 C 310.000 236.648,307.601 244.000,306.398 244.000 C 305.236 244.000,305.586 240.946,307.394 235.311 C 307.913 233.692,307.580 232.845,306.114 232.061 C 303.119 230.458,300.000 230.750,300.000 232.634 C 300.000 235.480,297.722 242.000,296.728 242.000 C 295.677 242.000,296.578 234.241,298.090 230.263 C 299.047 227.745,301.391 227.706,307.750 230.103 M337.003 229.731 C 337.006 231.385,335.711 236.345,330.795 253.500 C 329.692 257.350,328.653 261.175,328.486 262.000 C 327.430 267.226,325.668 272.998,325.131 272.988 C 324.784 272.982,322.025 272.312,319.000 271.500 C 315.975 270.688,313.163 270.018,312.750 270.012 C 312.337 270.005,312.000 272.250,312.000 275.000 C 312.000 277.750,312.142 280.000,312.316 280.000 C 315.056 280.000,356.319 293.306,367.787 297.888 C 370.695 299.049,373.248 300.000,373.460 300.000 C 374.006 300.000,370.349 287.253,366.505 275.762 L 363.248 266.024 371.374 261.145 C 375.843 258.461,381.975 255.017,385.000 253.491 C 396.385 247.746,396.370 248.229,385.290 243.844 C 376.002 240.168,345.640 230.015,339.750 228.615 C 337.540 228.090,337.001 228.309,337.003 229.731 M109.021 233.250 C 109.625 235.588,110.331 238.234,110.589 239.132 C 110.848 240.029,110.395 241.018,109.583 241.330 C 108.470 241.757,107.944 240.811,107.445 237.480 C 106.635 232.080,105.061 230.608,101.041 231.491 C 99.368 231.858,98.000 232.292,98.000 232.454 C 98.000 232.616,98.675 234.662,99.500 237.000 C 101.287 242.065,101.410 244.303,99.874 243.791 C 98.463 243.321,94.815 231.773,95.785 230.849 C 96.646 230.030,100.338 229.322,104.711 229.136 C 107.686 229.010,108.004 229.313,109.021 233.250 M82.026 234.250 C 83.847 240.002,83.688 239.966,87.467 235.477 C 89.308 233.289,91.153 231.835,91.567 232.244 C 91.982 232.653,91.642 233.778,90.813 234.744 C 87.862 238.179,87.834 238.891,90.657 238.691 C 93.993 238.455,97.311 243.089,95.268 245.132 C 94.331 246.069,93.913 245.911,93.378 244.417 C 91.429 238.987,84.619 239.531,85.201 245.070 C 85.773 250.507,83.533 248.095,81.254 240.821 C 79.993 236.795,78.714 232.713,78.413 231.750 C 78.070 230.653,78.390 230.000,79.273 230.000 C 80.050 230.000,81.282 231.901,82.026 234.250 M322.613 234.133 C 325.144 234.770,326.934 235.754,326.706 236.383 C 326.483 236.997,325.489 240.200,324.498 243.500 C 321.946 252.000,321.305 252.513,315.092 251.022 C 312.074 250.298,310.000 249.248,310.000 248.445 C 310.000 247.322,310.721 247.343,314.181 248.564 C 316.697 249.452,318.724 249.676,319.273 249.127 C 319.821 248.579,318.751 247.743,316.584 247.028 C 310.818 245.125,309.351 240.366,313.073 235.635 C 315.405 232.669,316.264 232.534,322.613 234.133 M315.571 236.571 C 311.957 240.186,315.064 246.000,320.609 246.000 C 320.780 246.000,321.475 244.145,322.154 241.879 C 323.874 236.138,319.517 232.625,315.571 236.571 M60.978 253.295 C 60.990 253.733,62.575 253.795,64.500 253.434 C 68.266 252.727,69.080 253.858,66.404 256.079 C 65.227 257.057,64.967 258.392,65.413 261.178 C 66.013 264.932,65.999 264.950,63.020 264.354 C 61.059 263.962,59.155 264.323,57.512 265.400 C 55.006 267.042,55.000 267.038,54.994 263.773 C 54.989 261.134,54.359 260.140,51.744 258.641 L 48.500 256.782 51.966 255.641 C 54.629 254.765,55.654 253.724,56.389 251.153 L 57.345 247.806 59.150 250.153 C 60.143 251.444,60.966 252.858,60.978 253.295 M347.326 251.879 C 347.728 253.889,348.672 254.952,350.451 255.398 C 353.512 256.167,353.722 257.543,351.000 259.000 C 349.591 259.754,349.000 261.094,349.000 263.535 C 349.000 267.297,347.997 267.906,345.921 265.404 C 344.941 264.224,343.609 263.967,340.798 264.416 C 336.564 265.093,336.551 265.079,338.124 261.626 C 339.070 259.550,338.883 258.644,336.942 255.919 L 334.635 252.679 338.251 253.266 C 341.322 253.764,342.106 253.487,343.456 251.426 C 345.546 248.237,346.623 248.363,347.326 251.879 M122.607 263.076 C 117.165 264.109,112.551 265.115,112.354 265.313 C 111.394 266.272,129.005 284.009,145.961 299.159 C 150.981 303.644,178.398 322.345,189.460 328.828 L 201.963 336.157 210.731 330.904 C 231.043 318.737,252.176 304.001,262.938 294.500 C 277.418 281.718,291.820 266.487,290.590 265.256 C 290.307 264.973,285.731 263.952,280.421 262.986 L 270.768 261.230 265.634 265.909 C 262.810 268.482,259.150 271.922,257.500 273.552 C 255.850 275.182,252.535 278.087,250.133 280.008 C 247.730 281.929,245.255 283.981,244.633 284.569 C 233.977 294.623,202.266 314.400,199.584 312.663 C 198.438 311.921,194.350 309.343,190.500 306.934 C 183.344 302.457,169.637 292.813,159.741 285.295 C 156.698 282.982,149.454 276.570,143.645 271.045 C 137.836 265.520,132.952 261.044,132.791 261.099 C 132.631 261.153,128.048 262.043,122.607 263.076 M184.608 262.578 C 184.226 263.575,183.361 263.969,182.380 263.592 C 181.223 263.148,180.943 263.408,181.372 264.527 C 181.699 265.379,181.365 266.307,180.629 266.589 C 179.254 267.117,178.906 272.994,180.250 272.998 C 180.662 272.999,181.000 273.900,181.000 275.000 C 181.000 276.333,181.667 277.000,183.000 277.000 C 184.100 277.000,185.000 277.337,185.000 277.750 C 185.000 278.890,190.400 278.711,191.206 277.545 C 191.630 276.933,193.312 277.879,195.404 279.907 L 198.895 283.291 192.948 289.294 C 188.165 294.121,187.229 295.571,188.167 296.702 C 189.131 297.863,190.336 297.116,195.091 292.410 L 200.849 286.712 204.905 289.925 C 207.137 291.692,209.929 294.495,211.110 296.154 C 213.075 298.914,213.394 299.035,214.851 297.578 C 216.308 296.121,215.872 295.453,209.743 289.743 L 203.042 283.500 207.771 279.017 C 214.203 272.920,215.500 273.086,215.500 280.006 C 215.500 287.631,219.780 289.447,226.684 284.750 C 232.562 280.751,235.661 267.288,230.189 269.522 C 228.599 270.172,225.910 270.356,221.643 270.108 C 220.480 270.040,219.988 269.474,220.326 268.594 C 220.923 267.036,217.729 263.604,216.669 264.664 C 216.301 265.032,216.000 264.873,216.000 264.311 C 216.000 263.748,214.328 263.336,212.286 263.394 C 208.283 263.508,206.492 268.694,209.972 270.091 C 211.072 270.533,210.138 272.051,206.282 276.091 L 201.119 281.500 197.520 278.016 C 194.462 275.055,194.147 274.365,195.426 273.431 C 196.539 272.617,196.638 272.038,195.808 271.208 C 194.977 270.377,195.018 269.683,195.965 268.542 C 197.035 267.253,196.960 267.000,195.506 267.000 C 194.298 267.000,193.916 266.427,194.257 265.127 C 194.633 263.686,194.314 263.367,192.873 263.743 C 191.573 264.084,191.000 263.702,191.000 262.494 C 191.000 261.062,190.736 260.975,189.500 262.000 C 188.365 262.942,187.663 262.965,186.617 262.097 C 185.545 261.208,185.093 261.316,184.608 262.578 " stroke="none" fill="#d4dfe9" fill-rule="evenodd"></path></g></svg>