<svg xmlns="http://www.w3.org/2000/svg"  viewBox="0 0 300 300">
  <g class="currentLayer">
    <path fill="#d4dfe9" fill-rule="evenodd" d="M152.223.913c-35.43 2.095-60.037 6.572-65.843 11.981l-2.157 2.01v153.194l4.25-.62c5.26-.766 9.558-1.516 12.5-2.18l2.25-.51V26.172l6.25-1.127c35.764-6.448 99.776-7.62 146.75-2.689 3.575.375 7.175.801 8 .948.825.146 3.75.627 6.5 1.07 2.75.441 5.337.892 5.75 1.002.413.11 1.425.256 2.25.325 1.318.11 1.5 8.557 1.5 69.514v69.388l3.25.616c1.788.338 4.375.848 5.75 1.133 1.375.285 4.413.795 6.75 1.132l4.25.614v-76.48c0-85.186.649-77.448-6.812-81.229-3.294-1.669-17.045-4.974-24.688-5.933-17.512-2.198-23.111-2.72-38.784-3.615-20.154-1.15-57.618-1.116-77.716.072m-3 35.635C132 42.534 126.259 53.423 127.735 77.3c.72 11.661-.45 21.57-3.167 26.826-1.76 3.404-1.31 4.16 1.99 3.331 2.765-.694 3.147-3.293 4.205-28.63 1.046-25.04 1.7-26.935 11.53-33.438 17.762-11.748 37.542-7.42 43.12 9.433l1.822 5.504-.523-4.669c-1.964-17.532-18.207-25.81-37.49-19.109m6.5 5.607c-5.94 1.516-13.27 5.052-16.847 8.125-4.327 3.718-4.933 6.54-6.133 28.546-.315 5.775-.798 14.55-1.074 19.5-1.272 22.847-6.33 39.5-11.996 39.5-.797 0-1.45.45-1.45 1 0 1.701 6.879 1.103 10.898-.947 6.389-3.26 8.055-12.468 8.086-44.698.02-21.238 1.49-28.043 7.6-35.18 9.183-10.73 26.22-11.327 34.727-1.219 5.157 6.13 6.303 2.578 1.94-6.01-4.337-8.538-13.738-11.683-25.75-8.617m.5 10.266c-13.396 4.734-16.102 11.756-17.113 44.405-.787 25.395-1.361 32.471-2.984 36.75-1.961 5.171 4.633.983 7.655-4.863 2.527-4.885 3.59-13.94 4.289-36.474.646-20.872.68-21.126 3.387-25 6.39-9.147 16.335-11.818 21.689-5.825 2.62 2.933 2.86 3.005 4.795 1.44 6.803-5.509-11.191-14.152-21.718-10.433m22.923 12.328c-2.32 2.32-4.2 8.077-2.638 8.077.156 0 2.816-.89 5.91-1.977 3.094-1.088 7.05-2.086 8.79-2.219 4.23-.322 4.474-1.072 1.363-4.183-3.773-3.773-9.478-3.645-13.425.302m10.484 6.108c-23.706 4.7-36.753 35.562-23.59 55.797 2.904 4.462 3.265-.05.544-6.785-6.941-17.186-.087-36.353 15.469-43.255 9.278-4.117 28.968-2.809 36.42 2.42l2.75 1.928V69.826l-13.75.11c-7.562.06-15.592.474-17.843.921m-1.673 6.057c-18.265 4.303-27.378 25.43-18.841 43.678l2.394 5.117-4.691 9.578c-4.473 9.134-4.947 11.527-2.287 11.55.655.004 8.166 2.273 16.69 5.04 13.653 4.431 16.843 5.1 26.75 5.608 12.518.641 12.642.561 8.317-5.409-1.652-2.28-3.071-5.655-3.25-7.725l-.316-3.675-9.568-3.283c-14.85-5.095-16.577-6.819-16.855-16.817-.061-2.173-.555-2.75-2.354-2.75-7.055 0-11.64-9.158-8.207-16.393 3.854-8.12 16.249-8.52 20.455-.66 1.04 1.944 1.978 2.053 17.719 2.053 15.758 0 16.539-.09 15.056-1.75-.861-.963-1.831-3.457-2.157-5.542-2.305-14.769-19.738-23.124-38.855-18.62m-6.624 21.258c-9.1 5.233-4.89 18.566 5.492 17.395 11.544-1.3 11.743-16.698.237-18.304-1.861-.259-4.397.143-5.73.91m15.89 10.521c0 2.475-4.397 7.806-7.161 8.683-4.262 1.353-.362 14.45 4.303 14.45 5.543 0 12.749-12.138 12.469-21-.134-4.27-9.61-6.37-9.61-2.133m11.609 3.803c-.826 7.028-3.767 13.853-7.736 17.955l-3.025 3.126 3.225 1.124c4.313 1.503 4.326 1.501 7.838-1.455 4.278-3.599 7.142-10.629 7.81-19.17l.568-7.25h-8.014l-.666 5.67m10.309-.92c-.173 9.984-3.252 18.67-8.051 22.708-3.58 3.012-3.57 3.151.297 3.924 7.723 1.544 14.793-10.68 14.824-25.633l.012-5.75h-3.5c-3.497 0-3.5.004-3.582 4.75m9.082 1.04c0 10.567-3.385 19.982-8.975 24.96l-2.525 2.248 2.715.001c3.593.001 9.034-4.87 11.645-10.425 2.308-4.909 2.632-6.32 3.658-15.894l.715-6.68h-7.233v5.79m-63.5 49.852c-18.282 1.48-30.137 2.6-36.5 3.445-12.803 1.703-14.248 1.917-23.5 3.488-4.95.841-10.218 1.734-11.707 1.984-1.49.25-8.69 1.86-16 3.576s-14.643 3.425-16.293 3.795c-3.822.86-3.83 2.961-.057 16.57 4.17 15.048 5.267 19.078 8.186 30.096l2.675 10.095 7.098-1.867c3.904-1.027 7.998-2.033 9.098-2.236 1.1-.202 6.46-1.335 11.912-2.517 10.682-2.316 32.077-5.64 42.588-6.617 3.575-.332 10.325-.99 15-1.463 11.294-1.14 59.15-1.099 70.5.062 4.95.506 11.7 1.18 15 1.494 10.45 1 32.023 4.342 42.06 6.517a2186.477 2186.477 0 0 0 11.312 2.43c.896.182 4.922 1.09 8.948 2.015 8.765 2.015 7.297 3.52 11.224-11.509 4.136-15.827 6.173-23.484 8.886-33.404 1.189-4.347 1.804-8.21 1.366-8.586-.997-.855-26.093-6.879-35.296-8.473-11.271-1.952-21.15-3.578-24.5-4.032-2.2-.299-5.35-.756-7-1.017-18.68-2.952-76.915-5.309-95-3.846m-22.5 21.858c0 1.808.537 2.5 1.94 2.5 2.817 0 3.498 1.8.825 2.18-1.992.281-2.223.801-1.918 4.32.432 4.983.753 5.5 3.412 5.5 1.539 0 1.836.305 1.056 1.085-2.77 2.77-5.784.597-6.706-4.835-.563-3.322-1.39-5.25-2.25-5.25-.747 0-1.36-.45-1.36-1s.665-1 1.476-1c1.106 0 1.325-.75.875-3-.47-2.349-.247-3 1.025-3 1.067 0 1.625.86 1.625 2.5m46.453.661c1.4.638 2.598 1.425 2.66 1.75 1.769 9.228-5.956 15.161-12.284 9.434-6.334-5.732 1.53-14.872 9.624-11.184m18.282.24c.267.268.437 3.76.376 7.757-.138 9.051-1.112 10.264-7.478 9.31-5.923-.888-6.008-2.468-.133-2.468 2.475 0 4.5-.45 4.5-1s-1.505-1-3.345-1c-6.701 0-9.483-9.713-3.655-12.762 2.248-1.175 8.5-1.07 9.735.163m12.015.84c1.742 1.4 1.566 4.76-.25 4.76-.833 0-1.5-.89-1.5-2 0-1.29-.667-2-1.875-2-1.9 0-3.125 3.382-3.125 8.624 0 1.306-.45 2.375-1 2.375-.57 0-1-2.933-1-6.799v-6.799l3.75.417c2.063.23 4.313.87 5 1.422m-94.75 1.24c0 2.347.232 2.45 4.289 1.893 5.819-.798 6.936.564 7.864 9.587.574 5.574-1.864 4.78-2.64-.86-.753-5.482-2.048-7.18-5.047-6.62-1.081.201-2.355.4-2.83.442-.821.073-.063 7.801 1.05 10.705.3.781-.108 1.372-.95 1.372-1.001 0-1.834-1.848-2.59-5.75-2.316-11.963-2.385-13.25-.708-13.25.996 0 1.562.9 1.562 2.481m49.8-1.28c1.5 1.5 1.574 4.8.106 4.8-.601 0-1.33-.9-1.616-2-1.308-5.002-4.29-2.22-4.29 4 0 6.69-1.403 8.03-2.358 2.25-1.465-8.866-1.04-10.25 3.158-10.25 2.09 0 4.34.54 5 1.2m60.038 1.292c.986.925 1.153 2.731.635 6.88l-.703 5.627h-3.82c-10.562 0-13.545-8.207-3.2-8.802 5.737-.33 7.773-3.058 2.5-3.35-1.512-.084-3.2-.257-3.75-.385a20.467 20.467 0 0 0-2.25-.348c-.687-.063-1.25-.58-1.25-1.149 0-1.41 10.094-.108 11.838 1.527m-72.428.682c3.81 5.44.769 11.825-5.633 11.825-2.295 0-2.777.433-2.777 2.5 0 2.482-1.93 3.644-2.077 1.25a26.197 26.197 0 0 0-.365-2.75c-.16-.825-.602-4.459-.985-8.076l-.695-6.577 5.47-.22c4.694-.19 5.698.1 7.062 2.048m19.77-1.308c-.826.524-1.2 2.292-1 4.735.553 6.75 8.764 6.141 8.805-.652.025-4.26-4.112-6.424-7.804-4.083m17.57-.178c-5.016 1.311-2.923 8.652 2.6 9.121l3.649.311v-4.454c0-3.138-.467-4.632-1.582-5.06-1.674-.642-1.911-.638-4.667.082m53.756 1.876c3.605.627 5.625 3.005 4.965 5.847-.484 2.087-1.258 6.424-1.398 7.838-.041.412-.688.75-1.437.75-1.098 0-1.18-1.014-.418-5.203.819-4.506.708-5.377-.828-6.5-3.22-2.355-4.222-1.499-4.936 4.216-.64 5.116-1.827 7.448-3.131 6.145-.298-.299-.112-3.044.415-6.1.527-3.057.688-5.59.359-5.632-.33-.04-1.625-.266-2.88-.499-2.54-.472-2.79-.01-3.705 6.823-1.017 7.598-2.872 5.88-2.16-2 .337-3.713.62-6.92.629-7.129.019-.392 9.247.526 14.525 1.444m-100.507 2.853c0 6.194 3.343 8.84 6.8 5.382 3.224-3.224.689-8.8-4-8.8-2.521 0-2.8.341-2.8 3.418m-50-.418c0 .55-.675 1-1.5 1s-1.5-.45-1.5-1 .675-1 1.5-1 1.5.45 1.5 1m167.792.59c9.586 1.976 10.563 2.718 9.683 7.346-.374 1.96-.885 4.68-1.138 6.041-.56 3.028-.615 3.087-2.033 2.211-.838-.518-.854-1.942-.062-5.402.84-3.675.788-5.045-.242-6.285-2.297-2.769-4.327-1.307-5.447 3.921-.58 2.704-1.684 5.125-2.455 5.381-1.088.361-1.256-.237-.75-2.669l1.25-6.006c.544-2.598.314-2.914-2.405-3.313-2.947-.433-3.03-.327-4.15 5.372-1.726 8.774-4.012 7.895-2.438-.937.662-3.713 1.246-6.863 1.299-7 .16-.419.903-.307 8.888 1.34m17.208-.59c0 .55-.675 1-1.5 1s-1.5-.45-1.5-1 .675-1 1.5-1 1.5.45 1.5 1m-167.558 2.25c1.875 8.797 2.616 13.847 2.143 14.613-.52.84-8.23 3.137-10.528 3.137-3.056 0-.43-1.867 3.443-2.448 2.766-.414 4.5-1.192 4.5-2.018 0-.992-1.054-1.202-4.022-.804-9.931 1.332-11.697-10.773-1.978-13.55 5.24-1.497 5.918-1.384 6.442 1.07m104.243 1.128c-.8 2.084 1.329 3.622 5.015 3.622 2.57 0 3.3-.418 3.3-1.893 0-3.052-7.23-4.555-8.315-1.729m-119.786 4.372c.585 2.613 1.35 5.762 1.699 7 .454 1.61.212 2.25-.851 2.25-1.601 0-4.381-11.165-3.24-13.01 1.007-1.63 1.28-1.203 2.392 3.76m6.672-3.179c-3.392 3.393-1.06 8.43 3.905 8.43 4.18 0 4.42-.418 3.3-5.75-.985-4.687-4.055-5.829-7.205-2.68m173.77 6.176c-1.58 7.533-1.51 7.385-3.03 6.446-1.658-1.025 1.404-14.24 3.146-13.57 1.028.393 1.005 1.778-.116 7.124m-252.341 1.674c-36.128 12.273-35.535 11.95-28.31 15.46 3.849 1.87 25.028 13.75 26.123 14.654.264.217-3.676 13.383-9.34 31.208l-1.347 4.243 2.687-1.383c6.646-3.42 45.966-16.617 53.68-18.016 6.202-1.125 6.507-1.437 6.507-6.654 0-2.713-.338-4.928-.75-4.92-.412.005-3.225.675-6.25 1.487s-5.803 1.482-6.172 1.488c-.752.013-1.61-2.63-4.858-14.988-6.162-23.439-8.218-30.004-9.378-29.94-.601.031-10.767 3.344-22.592 7.361m265.75-5.318c1.306.492 2.25 1.691 2.25 2.858 0 3.687-2.4 11.04-3.602 11.04-1.162 0-.812-3.055.996-8.69.519-1.619.186-2.466-1.28-3.25-2.995-1.603-6.114-1.31-6.114.573 0 2.846-2.278 9.366-3.272 9.366-1.051 0-.15-7.759 1.362-11.737.957-2.518 3.3-2.557 9.66-.16m29.253-.372c.003 1.654-1.292 6.614-6.208 23.77-1.103 3.85-2.142 7.674-2.31 8.5-1.055 5.225-2.817 10.997-3.354 10.987-.347-.006-3.106-.676-6.131-1.488-3.025-.812-5.837-1.482-6.25-1.488-.413-.007-.75 2.238-.75 4.988 0 2.75.142 5 .316 5 2.74 0 44.003 13.306 55.47 17.888 2.909 1.161 5.462 2.112 5.674 2.112.546 0-3.111-12.747-6.955-24.238l-3.257-9.738 8.126-4.879c4.469-2.684 10.6-6.128 13.626-7.654 11.385-5.745 11.37-5.262.29-9.647-9.288-3.676-39.65-13.829-45.54-15.229-2.21-.525-2.75-.306-2.747 1.116m-227.982 3.52c.604 2.337 1.31 4.983 1.568 5.881.259.897-.194 1.886-1.006 2.198-1.113.427-1.64-.519-2.138-3.85-.81-5.4-2.384-6.872-6.404-5.989-1.673.367-3.041.801-3.041.963 0 .162.675 2.208 1.5 4.546 1.787 5.065 1.91 7.303.374 6.791-1.411-.47-5.06-12.018-4.09-12.942.862-.819 4.554-1.527 8.927-1.713 2.975-.126 3.293.177 4.31 4.114m-26.995 1c1.82 5.752 1.662 5.716 5.44 1.227 1.842-2.188 3.687-3.642 4.1-3.233.416.41.076 1.534-.753 2.5-2.951 3.435-2.98 4.147-.156 3.947 3.336-.236 6.654 4.398 4.61 6.441-.936.937-1.354.78-1.89-.715-1.948-5.43-8.758-4.886-8.176.653.572 5.437-1.668 3.025-3.947-4.249l-2.841-9.07c-.343-1.098-.023-1.75.86-1.75.777 0 2.009 1.9 2.753 4.25m240.587-.118c2.53.637 4.32 1.621 4.093 2.25-.223.614-1.217 3.817-2.208 7.117-2.552 8.5-3.193 9.013-9.406 7.522-3.018-.724-5.092-1.774-5.092-2.577 0-1.123.72-1.102 4.18.12 2.517.887 4.544 1.111 5.093.562.548-.548-.522-1.384-2.69-2.099-5.765-1.903-7.232-6.662-3.51-11.393 2.332-2.966 3.19-3.1 9.54-1.502m-7.042 2.438c-3.614 3.615-.507 9.43 5.038 9.43.17 0 .866-1.856 1.545-4.122 1.72-5.74-2.637-9.254-6.583-5.308M51.2 221.121c.012.438 1.597.5 3.522.14 3.766-.708 4.58.423 1.904 2.644-1.177.978-1.437 2.313-.991 5.1.6 3.753.586 3.771-2.393 3.175-1.961-.392-3.865-.03-5.508 1.046-2.506 1.642-2.512 1.638-2.518-1.627-.005-2.639-.635-3.633-3.25-5.132l-3.244-1.859 3.466-1.14c2.663-.877 3.688-1.918 4.423-4.489l.956-3.347 1.805 2.347c.993 1.291 1.816 2.705 1.828 3.142m286.348-1.416c.402 2.01 1.346 3.073 3.125 3.52 3.06.768 3.27 2.144.549 3.601-1.41.754-2 2.094-2 4.535 0 3.762-1.003 4.371-3.08 1.87-.98-1.18-2.311-1.438-5.122-.989-4.234.677-4.247.663-2.674-2.79.946-2.076.759-2.982-1.182-5.707l-2.307-3.24 3.616.587c3.07.498 3.855.221 5.205-1.84 2.09-3.189 3.167-3.063 3.87.453m-224.72 11.197c-5.441 1.033-10.055 2.04-10.252 2.237-.96.96 16.65 18.696 33.607 33.846 5.02 4.485 32.437 23.186 43.499 29.67l12.503 7.328 8.768-5.253c20.312-12.167 41.445-26.903 52.207-36.404 14.48-12.782 28.882-28.013 27.652-29.244-.283-.283-4.86-1.304-10.17-2.27l-9.652-1.756-5.134 4.68c-2.824 2.572-6.484 6.012-8.134 7.642-1.65 1.63-4.965 4.535-7.367 6.456-2.403 1.921-4.878 3.973-5.5 4.561-10.656 10.054-42.367 29.831-45.05 28.094-1.145-.742-5.233-3.32-9.083-5.729-7.156-4.477-20.863-14.12-30.76-21.639-3.042-2.313-10.286-8.725-16.095-14.25-5.81-5.525-10.693-10-10.854-9.946-.16.054-4.743.944-10.184 1.977m62-.498c-.381.997-1.246 1.391-2.227 1.014-1.157-.444-1.437-.184-1.008.935.327.852-.007 1.78-.743 2.062-1.375.528-1.723 6.405-.38 6.41.413 0 .75.901.75 2.001 0 1.333.668 2 2 2 1.1 0 2 .337 2 .75 0 1.14 5.4.961 6.207-.205.424-.612 2.106.334 4.198 2.362l3.49 3.384-5.946 6.003c-4.783 4.827-5.72 6.277-4.781 7.408.964 1.161 2.169.414 6.924-4.292l5.758-5.698 4.056 3.213c2.232 1.767 5.024 4.57 6.205 6.23 1.965 2.76 2.284 2.88 3.74 1.423 1.458-1.457 1.022-2.125-5.107-7.835l-6.701-6.243 4.729-4.483c6.432-6.097 7.729-5.93 7.729.99 0 7.624 4.28 9.44 11.184 4.743 5.878-3.999 8.977-17.462 3.505-15.228-1.59.65-4.28.834-8.546.586-1.163-.068-1.655-.634-1.317-1.514.597-1.558-2.597-4.99-3.657-3.93-.368.368-.67.21-.67-.353s-1.671-.975-3.713-.917c-4.003.114-5.794 5.3-2.314 6.697 1.1.442.166 1.96-3.69 6l-5.163 5.41-3.6-3.485c-3.057-2.96-3.372-3.65-2.093-4.585 1.113-.814 1.212-1.393.382-2.223-.831-.83-.79-1.525.157-2.666 1.07-1.289.995-1.542-.46-1.542-1.207 0-1.59-.573-1.248-1.873.376-1.44.057-1.76-1.384-1.384-1.3.341-1.873-.04-1.873-1.249 0-1.432-.264-1.519-1.5-.494-1.135.942-1.837.965-2.883.097-1.072-.889-1.524-.78-2.01.481"/>
  </g>
</svg>